<svg width="1000" height="1000" fill="none" xmlns="http://www.w3.org/2000/svg"><path fill-rule="evenodd" clip-rule="evenodd" d="M971.244 524.295l-46.08 43.268L738.072 390.41 244.011 924.287c-83.937 84.663-209.354-49.201-132.148-125.48l269.623-248.521L248.73 406.1 80.269 572.037l-44.6-38.326L20 339.632l87.517-86.931-42.054-45.697 80.55-66.841 38.741 35.812L312.962 48.609l153.964 142.587L338.292 317.88l147.456 136.293 161.974-149.299L531.008 194.36 682.937 49.6l118.056 114.008 37.921-34.95 66.842 80.551-27.142 29.325L980 336.436l-8.756 187.859zM850.355 791.18c84.662 83.927-49.202 209.34-125.47 132.16L528.388 709.895l107.446-116.991L850.355 791.18z" fill="#000"/></svg>